Coordinates
version=1
nRows=14
nColumns=28
inDegrees=yes

Units are S.I. units (second, meters, Newtons, ...)
Angles are in degrees.

endheader
time	pelvis_tilt	pelvis_list	pelvis_rotation	pelvis_tx	pelvis_ty	pelvis_tz	hip_flexion_r	hip_adduction_r	hip_rotation_r	knee_angle_r	ankle_angle_r	subtalar_angle_r	mtp_angle_r	hip_flexion_l	hip_adduction_l	hip_rotation_l	knee_angle_l	socket_flexion	socket_adduction	socket_rotation	socket_tx	socket_ty	socket_tz	foot_flex	lumbar_extension	lumbar_bending	lumbar_rotation
      0.31250000	      4.08433701	     -1.18327471	      0.20177346	     -0.47160404	      1.03191029	      0.29019874	     11.61395220	     -0.03098956	     -5.52754094	    -63.63502839	      4.49740783	    -13.16471266	     -8.37590436	     -0.22114362	      0.23881069	      1.76875221	     -5.22036572	     -1.84314034	      1.36070788	     12.41529993	      0.00000000	     -0.03136870	      0.00000000	     -1.78512849	    -15.86739906	     -1.93554829	      1.82228399
      0.31666667	      4.12881382	     -1.18551529	      0.30152707	     -0.46647265	      1.03250697	      0.29018084	     12.16000881	     -0.03353774	     -5.55453519	    -63.33529920	      4.56091193	    -13.16937930	     -8.36845292	     -0.58638922	      0.22459790	      1.77184066	     -5.25224841	     -1.94056625	      1.35050305	     12.43215057	      0.00000000	     -0.03110082	      0.00000000	     -1.73853678	    -15.95939200	     -1.93824191	      1.81643837
      0.32083333	      4.30956742	     -1.54201330	      0.55206662	     -0.46065222	      1.03329553	      0.28982278	     12.34380761	      0.30060038	     -5.82615932	    -62.72142437	      5.35796524	    -12.51058256	     -8.20707524	     -1.33645964	     -0.19883502	      1.81198463	     -4.70123973	     -1.68338501	      1.44463658	     12.67836800	      0.00000000	     -0.03132772	      0.00000000	     -1.50029784	    -16.08878941	     -1.43707366	      1.53047934
      0.32500000	      4.35022128	     -1.53336135	      0.63684535	     -0.45557653	      1.03379468	      0.28981679	     12.88378437	      0.27650620	     -5.84886607	    -62.37331238	      5.42401487	    -12.51415726	     -8.20087026	     -1.69189432	     -0.20393508	      1.82167510	     -4.73279654	     -1.77765117	      1.43120048	     12.69957764	      0.00000000	     -0.03110068	      0.00000000	     -1.46266593	    -16.18644958	     -1.42882391	      1.52626530
      0.32916667	      4.68656863	     -1.82324917	      0.94048782	     -0.44970056	      1.03478793	      0.28932042	     12.83150810	      0.49452112	     -6.20325252	    -61.62534453	      6.24975449	    -11.75586835	     -8.10259380	     -2.67460033	     -0.55623268	      1.93369225	     -3.98413730	     -1.41024199	      1.52700237	     12.90022644	      0.00000000	     -0.03114928	      0.00000000	     -1.26523253	    -16.48915502	     -0.98926774	      1.21026835
      0.33333333	      4.72110045	     -1.81603963	      1.00737944	     -0.44467514	      1.03518235	      0.28931884	     13.36667935	      0.46245038	     -6.22969288	    -61.21933041	      6.32348987	    -11.76323598	     -8.09793009	     -3.02074254	     -0.56418670	      1.94318113	     -4.01765766	     -1.49851270	      1.51873229	     12.92243135	      0.00000000	     -0.03095066	      0.00000000	     -1.21960049	    -16.58047737	     -0.97854439	      1.20581605
      0.33750000	      4.74063507	     -1.82035235	      1.09046537	     -0.43954563	      1.03561206	      0.28932525	     13.85941843	      0.44430448	     -6.26659866	    -60.69082360	      6.45967824	    -11.76536350	     -8.08626515	     -3.35979215	     -0.58961133	      1.95136673	     -4.03157934	     -1.57509174	      1.50677740	     12.97011417	      0.00000000	     -0.03069322	      0.00000000	     -1.13544636	    -16.64096754	     -0.95953471	      1.19342013
      0.34166667	      4.91344011	     -2.32281132	      1.48741190	     -0.43334047	      1.03630909	      0.28876169	     13.84785601	      0.92234371	     -6.69198526	    -59.68561568	      7.26863309	    -11.17654780	     -8.01537175	     -4.09181056	     -1.20281756	      1.89544444	     -3.51069736	     -1.34462576	      1.58601568	     13.42184652	      0.00000000	     -0.03110493	      0.00000000	     -0.91210219	    -16.66207804	     -0.23495771	      0.80508387
      0.34583333	      4.94378474	     -2.31218972	      1.60526152	     -0.42805981	      1.03676128	      0.28872968	     14.25303766	      0.88846290	     -6.75204840	    -59.03159229	      7.44896987	    -11.18696756	     -8.01483785	     -4.46329536	     -1.21681427	      1.89873393	     -3.49304762	     -1.39848497	      1.57685265	     13.47346875	      0.00000000	     -0.03075412	      0.00000000	     -0.78521200	    -16.69445198	     -0.23500331	      0.78829175
      0.35000000	      5.35558809	     -2.62639989	      1.88150695	     -0.42247277	      1.03761562	      0.28829947	     14.10191024	      1.13924475	     -7.11307566	    -58.14566576	      7.90831929	    -10.79820348	     -8.19172888	     -5.45707410	     -1.61884065	      1.92525368	     -2.87434425	     -1.11551589	      1.66304135	     13.69998829	      0.00000000	     -0.03091268	      0.00000000	     -0.63533579	    -17.11843479	      0.25161523	      0.44935371
      0.35416667	      5.36287095	     -2.60178291	      1.98291879	     -0.41724336	      1.03794178	      0.28832118	     14.51253500	      1.08889366	     -7.17074559	    -57.43428129	      8.08729485	    -10.84663337	     -8.19966311	     -5.79827957	     -1.62163966	      1.92207827	     -2.86462364	     -1.16834785	      1.65153461	     13.74415702	      0.00000000	     -0.03062670	      0.00000000	     -0.53360724	    -17.11877538	      0.23647768	      0.45314356
      0.35833333	      5.37150480	     -2.63721103	      2.13494494	     -0.41186262	      1.03822323	      0.28823650	     14.86407364	      1.08803696	     -7.29510448	    -56.63733025	      8.34301592	    -10.90176436	     -8.21092616	     -6.16083902	     -1.69809232	      1.91728368	     -2.80350278	     -1.18916607	      1.65215334	     13.87660471	      0.00000000	     -0.03045754	      0.00000000	     -0.38458074	    -17.08688964	      0.28961856	      0.42797750
      0.36250000	      5.60310072	     -3.02425023	      2.41420880	     -0.40630642	      1.03873741	      0.28786972	     14.87268626	      1.43468536	     -7.66851184	    -55.63026683	      8.67939288	    -10.84907148	     -8.42728925	     -6.88217718	     -2.19451638	      1.86846264	     -2.36522518	     -1.00844373	      1.72455260	     14.19901295	      0.00000000	     -0.03075147	      0.00000000	     -0.27680736	    -17.29413783	      0.86697074	      0.10632517
      0.36666667	      5.61599661	     -2.98884856	      2.51460477	     -0.40104511	      1.03897807	      0.28788109	     15.22050238	      1.36644166	     -7.74531091	    -54.81059957	      8.85210599	    -10.92266807	     -8.46129231	     -7.23438843	     -2.18787950	      1.85796821	     -2.34163907	     -1.04813901	      1.71262870	     14.24279691	      0.00000000	     -0.03046610	      0.00000000	     -0.13851049	    -17.29957885	      0.83793680	      0.10036353
